<mxfile host="app.diagrams.net" modified="2021-08-25T16:01:32.479Z" agent="5.0 (Windows NT 10.0; Win64; x64) AppleWebKit/537.36 (KHTML, like Gecko) Chrome/92.0.4515.159 Safari/537.36 Edg/92.0.902.78" etag="Z9EMuooryo3W3amDClXb" version="14.9.9" type="github">
  <diagram id="VK9HpViJWBIS-n7L-eVx" name="Page-1">
    <mxGraphModel dx="1038" dy="546" grid="1" gridSize="10" guides="1" tooltips="1" connect="1" arrows="1" fold="1" page="1" pageScale="1" pageWidth="827" pageHeight="1169" math="0" shadow="0">
      <root>
        <mxCell id="0" />
        <mxCell id="1" parent="0" />
        <mxCell id="k6bKdK0Z1SNqEurg4iVA-3" value="INSCRIPTION" style="rounded=0;whiteSpace=wrap;html=1;" vertex="1" parent="1">
          <mxGeometry x="280" y="30" width="240" height="60" as="geometry" />
        </mxCell>
        <mxCell id="k6bKdK0Z1SNqEurg4iVA-5" value="" style="shape=singleArrow;direction=south;whiteSpace=wrap;html=1;" vertex="1" parent="1">
          <mxGeometry x="380" y="90" width="20" height="100" as="geometry" />
        </mxCell>
        <mxCell id="k6bKdK0Z1SNqEurg4iVA-6" value="RECRUTEUR" style="shape=singleArrow;direction=west;whiteSpace=wrap;html=1;arrowWidth=0.41333414713541666;arrowSize=0.144000244140625;" vertex="1" parent="1">
          <mxGeometry x="140" y="160" width="240" height="40" as="geometry" />
        </mxCell>
        <mxCell id="k6bKdK0Z1SNqEurg4iVA-7" value="EMPLOYER" style="shape=singleArrow;whiteSpace=wrap;html=1;" vertex="1" parent="1">
          <mxGeometry x="400" y="155" width="230" height="55" as="geometry" />
        </mxCell>
      </root>
    </mxGraphModel>
  </diagram>
</mxfile>
